<?xml version="1.0" standalone="no"?>
<!DOCTYPE svg PUBLIC "-//W3C//DTD SVG 20010904//EN"
 "http://www.w3.org/TR/2001/REC-SVG-20010904/DTD/svg10.dtd">
<svg version="1.0" xmlns="http://www.w3.org/2000/svg"
 width="70.000000pt" height="70.000000pt" viewBox="0 0 70.000000 70.000000"
 preserveAspectRatio="xMidYMid meet">
<metadata>
Created by potrace 1.14, written by Peter Selinger 2001-2017
</metadata>
<g transform="translate(0.000000,70.000000) scale(0.100000,-0.100000)"
fill="#000000" stroke="none">
<path d="M193 586 c-77 -35 -96 -143 -34 -198 41 -37 76 -44 124 -27 72 25
100 97 66 166 -10 21 -27 43 -38 50 -32 20 -84 24 -118 9z"/>
<path d="M379 308 c-22 -40 -54 -94 -70 -120 l-28 -48 145 0 c111 0 145 3 142
13 -5 21 -132 227 -140 227 -4 0 -26 -33 -49 -72z"/>
</g>
</svg>
